<svg width="178" height="23" viewBox="0 0 178 23" fill="none" xmlns="http://www.w3.org/2000/svg">
<path d="M8.67332 22.48C6.19332 22.48 4.20332 21.88 2.70332 20.68C1.20332 19.48 0.45332 17.64 0.45332 15.16H6.45332C6.45332 16.32 7.21332 16.9 8.73332 16.9C9.29332 16.9 9.72332 16.79 10.0233 16.57C10.3433 16.35 10.5033 16.06 10.5033 15.7C10.5033 15.14 9.51332 14.58 7.53332 14.02C7.49332 14 7.45332 13.99 7.41332 13.99C7.39332 13.99 7.36332 13.98 7.32332 13.96C7.30332 13.94 7.27332 13.93 7.23332 13.93C2.85332 12.59 0.66332 10.32 0.66332 7.12C0.66332 5.02 1.36332 3.4 2.76332 2.26C4.18332 1.1 6.00332 0.519999 8.22332 0.519999C10.4833 0.519999 12.3333 1.11 13.7733 2.29C15.2333 3.45 15.9633 5.2 15.9633 7.54H9.96332C9.96332 6.58 9.38332 6.1 8.22332 6.1C7.18332 6.1 6.66332 6.45 6.66332 7.15C6.66332 7.27 6.68332 7.38 6.72332 7.48C6.76332 7.58 6.82332 7.68 6.90332 7.78C6.98332 7.86 7.07332 7.94 7.17332 8.02C7.27332 8.1 7.40332 8.18 7.56332 8.26C7.72332 8.32 7.86332 8.38 7.98332 8.44C8.12332 8.48 8.30332 8.54 8.52332 8.62C8.74332 8.68 8.93332 8.74 9.09332 8.8C9.25332 8.84 9.46332 8.9 9.72332 8.98C10.0033 9.06 10.2233 9.12 10.3833 9.16C14.4633 10.38 16.5033 12.62 16.5033 15.88C16.5033 17.98 15.7733 19.61 14.3133 20.77C12.8733 21.91 10.9933 22.48 8.67332 22.48ZM37.6139 15.7C37.4139 17.64 36.5739 19.25 35.0939 20.53C33.6139 21.79 31.8639 22.42 29.8439 22.42C27.5439 22.42 25.6339 21.67 24.1139 20.17C22.5939 18.65 21.8339 16.76 21.8339 14.5C21.8339 12.24 22.5939 10.36 24.1139 8.86C25.6339 7.34 27.5439 6.58 29.8439 6.58C31.8639 6.58 33.6139 7.22 35.0939 8.5C36.5739 9.76 37.4139 11.36 37.6139 13.3H31.8839C31.7639 12.88 31.5139 12.55 31.1339 12.31C30.7739 12.05 30.3439 11.92 29.8439 11.92C29.1439 11.92 28.5539 12.17 28.0739 12.67C27.6139 13.15 27.3839 13.76 27.3839 14.5C27.3839 15.24 27.6139 15.86 28.0739 16.36C28.5539 16.84 29.1439 17.08 29.8439 17.08C30.3439 17.08 30.7839 16.96 31.1639 16.72C31.5439 16.46 31.7939 16.12 31.9139 15.7H37.6139ZM49.1553 8.11C50.0153 7.09 51.1653 6.58 52.6053 6.58C54.0453 6.58 55.2053 7.1 56.0853 8.14C56.9653 9.16 57.4053 10.59 57.4053 12.43V22H51.8553V13.18C51.8553 12.34 51.4353 11.92 50.5953 11.92C49.6353 11.92 49.1553 12.46 49.1553 13.54V22H43.6053V0.999999H49.1553V8.11ZM71.57 22.42C69.33 22.42 67.42 21.66 65.84 20.14C64.28 18.62 63.5 16.74 63.5 14.5C63.5 12.26 64.28 10.38 65.84 8.86C67.4 7.34 69.31 6.58 71.57 6.58C73.83 6.58 75.74 7.34 77.3 8.86C78.86 10.38 79.64 12.26 79.64 14.5C79.64 16.74 78.86 18.62 77.3 20.14C75.74 21.66 73.83 22.42 71.57 22.42ZM69.74 16.42C70.22 16.9 70.83 17.14 71.57 17.14C72.31 17.14 72.91 16.9 73.37 16.42C73.85 15.92 74.09 15.28 74.09 14.5C74.09 13.72 73.85 13.09 73.37 12.61C72.91 12.11 72.31 11.86 71.57 11.86C70.83 11.86 70.22 12.11 69.74 12.61C69.28 13.09 69.05 13.72 69.05 14.5C69.05 15.28 69.28 15.92 69.74 16.42ZM93.2965 22.42C91.0565 22.42 89.1465 21.66 87.5665 20.14C86.0065 18.62 85.2265 16.74 85.2265 14.5C85.2265 12.26 86.0065 10.38 87.5665 8.86C89.1265 7.34 91.0365 6.58 93.2965 6.58C95.5565 6.58 97.4665 7.34 99.0265 8.86C100.587 10.38 101.367 12.26 101.367 14.5C101.367 16.74 100.587 18.62 99.0265 20.14C97.4665 21.66 95.5565 22.42 93.2965 22.42ZM91.4665 16.42C91.9465 16.9 92.5565 17.14 93.2965 17.14C94.0365 17.14 94.6365 16.9 95.0965 16.42C95.5765 15.92 95.8165 15.28 95.8165 14.5C95.8165 13.72 95.5765 13.09 95.0965 12.61C94.6365 12.11 94.0365 11.86 93.2965 11.86C92.5565 11.86 91.9465 12.11 91.4665 12.61C91.0065 13.09 90.7765 13.72 90.7765 14.5C90.7765 15.28 91.0065 15.92 91.4665 16.42ZM107.613 22V0.399999H113.163V22H107.613ZM125.033 11.44C125.033 11.74 125.223 11.98 125.603 12.16C125.983 12.34 126.453 12.47 127.013 12.55C127.573 12.61 128.183 12.74 128.843 12.94C129.503 13.14 130.113 13.39 130.673 13.69C131.233 13.97 131.703 14.44 132.083 15.1C132.463 15.74 132.653 16.54 132.653 17.5C132.653 19.2 132.023 20.45 130.763 21.25C129.503 22.03 127.933 22.42 126.053 22.42C124.153 22.42 122.573 22 121.313 21.16C120.073 20.3 119.453 18.93 119.453 17.05H125.003C125.003 17.91 125.353 18.34 126.053 18.34C126.753 18.34 127.103 18.08 127.103 17.56C127.103 17.24 126.843 16.99 126.323 16.81C125.803 16.63 125.173 16.46 124.433 16.3C123.693 16.14 122.953 15.93 122.213 15.67C121.473 15.39 120.843 14.9 120.323 14.2C119.803 13.5 119.543 12.6 119.543 11.5C119.543 9.86 120.173 8.63 121.433 7.81C122.693 6.99 124.213 6.58 125.993 6.58C127.753 6.58 129.243 7.03 130.463 7.93C131.703 8.83 132.323 10.15 132.323 11.89H126.953C126.953 11.07 126.633 10.66 125.993 10.66C125.353 10.66 125.033 10.92 125.033 11.44ZM138.974 22V16H144.974V22H138.974ZM158.828 6.58C160.628 6.58 162.168 7.1 163.448 8.14C164.728 9.18 165.368 10.65 165.368 12.55V22H160.088V21.13C159.188 21.99 158.058 22.42 156.698 22.42C155.158 22.42 153.918 22.02 152.978 21.22C152.038 20.4 151.568 19.24 151.568 17.74C151.568 16.24 152.058 15.09 153.038 14.29C154.018 13.47 155.278 13.06 156.818 13.06C158.058 13.06 159.148 13.35 160.088 13.93V12.55C160.088 11.75 159.668 11.35 158.828 11.35C157.988 11.35 157.568 11.7 157.568 12.4H152.288C152.288 10.56 152.928 9.13 154.208 8.11C155.508 7.09 157.048 6.58 158.828 6.58ZM158.588 19C159.028 19 159.388 18.89 159.668 18.67C159.948 18.43 160.088 18.12 160.088 17.74C160.088 17.34 159.948 17.03 159.668 16.81C159.388 16.59 159.028 16.48 158.588 16.48C158.128 16.48 157.768 16.6 157.508 16.84C157.248 17.06 157.118 17.36 157.118 17.74C157.118 18.12 157.248 18.43 157.508 18.67C157.768 18.89 158.128 19 158.588 19ZM172.107 5.5V0.999999H177.657V5.5H172.107ZM172.107 22V7H177.657V22H172.107Z" fill="#035096"/>
</svg>
