<svg width="255" height="349" viewBox="0 0 255 349" fill="none" xmlns="http://www.w3.org/2000/svg">
<path d="M130.598 349C91.1964 349 59.5795 339.464 35.7477 320.393C11.9159 301.322 0 272.08 0 232.667H95.3272C95.3272 251.102 107.402 260.32 131.552 260.32C140.449 260.32 147.281 258.572 152.047 255.075C157.131 251.579 159.673 246.97 159.673 241.249C159.673 232.349 143.944 223.449 112.486 214.549C111.851 214.231 111.215 214.072 110.58 214.072C110.262 214.072 109.785 213.913 109.15 213.596C108.832 213.278 108.355 213.119 107.72 213.119C38.1309 191.823 3.33645 155.747 3.33645 104.891C3.33645 71.5164 14.458 45.7705 36.701 27.653C59.2618 9.21768 88.1777 0 123.449 0C159.355 0 188.748 9.37661 211.626 28.1298C234.822 46.5651 246.421 74.3771 246.421 111.566H151.094C151.094 96.3088 141.879 88.6803 123.449 88.6803C106.925 88.6803 98.6637 94.2427 98.6637 105.368C98.6637 107.275 98.9814 109.023 99.6169 110.612C100.252 112.201 101.206 113.791 102.477 115.38C103.748 116.651 105.178 117.923 106.766 119.194C108.355 120.465 110.421 121.737 112.963 123.008C115.505 123.962 117.729 124.915 119.636 125.869C121.86 126.505 124.72 127.458 128.215 128.73C131.71 129.683 134.729 130.637 137.271 131.59C139.813 132.226 143.15 133.179 147.281 134.451C151.729 135.722 155.224 136.676 157.766 137.311C222.589 156.7 255 192.3 255 244.109C255 277.484 243.402 303.388 220.206 321.824C197.327 339.941 167.458 349 130.598 349Z" fill="#035096"/>
</svg>
